<svg width="3352" height="273" viewBox="0 0 3352 273" fill="none" xmlns="http://www.w3.org/2000/svg">
<path d="M712.588 176.478C711.243 188.476 703.175 193.809 691.073 193.809C676.282 193.809 668.449 184.941 666.87 169.812C666.87 152.944 688.384 151.147 696.452 152.48C704.52 153.814 713.932 164.479 712.588 176.478Z" fill="#61C3D3"/>
<path d="M635.61 177.738C641.314 184.882 639.85 192.056 633.371 198.535C625.452 206.454 616.511 205.9 607.565 198.646C598.535 189.615 609.091 177.135 614.124 173.529C619.157 169.924 629.906 170.595 635.61 177.738Z" fill="#61C3D3"/>
<path d="M56.2672 192.047C14.397 125.465 0.709662 20.2155 0 0H837.756C837.756 45.2441 809.548 107.816 763.775 128.031C712.897 150.501 526.202 131.951 419.41 219.482C312.618 307.014 111.312 279.578 56.2672 192.047Z" fill="#62C4D6"/>
<path d="M1554.5 173.529C1553.16 185.528 1540.6 198.646 1528.5 198.646C1513.71 198.646 1502.58 184.941 1501 169.812C1501 152.944 1527.93 146.167 1536 147.5C1544.07 148.833 1555.84 161.531 1554.5 173.529Z" fill="#61C3D3"/>
<path d="M1479.5 173.529C1485.2 180.673 1485.98 192.167 1479.5 198.646C1471.58 206.565 1453.95 209.754 1445 202.5C1435.97 193.469 1443.47 173.417 1448.5 169.812C1453.53 166.206 1473.8 166.386 1479.5 173.529Z" fill="#61C3D3"/>
<path d="M934.5 169.812C892.63 103.231 838.71 20.2155 838 0H1675.76C1675.76 45.2441 1619.77 89.7845 1574 110C1523.12 132.47 1315.79 134.468 1209 222C1102.21 309.532 989.545 257.343 934.5 169.812Z" fill="#62C4D6"/>
<path d="M3230.5 173.529C3229.16 185.528 3216.6 198.646 3204.5 198.646C3189.71 198.646 3178.58 184.941 3177 169.812C3177 152.944 3203.93 146.167 3212 147.5C3220.07 148.833 3231.84 161.531 3230.5 173.529Z" fill="#61C3D3"/>
<path d="M3155.5 173.529C3161.2 180.673 3161.98 192.167 3155.5 198.646C3147.58 206.565 3129.95 209.754 3121 202.5C3111.97 193.469 3119.47 173.417 3124.5 169.812C3129.53 166.206 3149.8 166.386 3155.5 173.529Z" fill="#61C3D3"/>
<path d="M2610.5 169.812C2568.63 103.231 2514.71 20.2155 2514 0H3351.76C3351.76 45.2441 3295.77 89.7845 3250 110C3199.12 132.47 2991.79 134.468 2885 222C2778.21 309.532 2665.54 257.343 2610.5 169.812Z" fill="#62C4D6"/>
<path d="M2397.5 176C2393 193.5 2378.6 198.646 2366.5 198.646C2351.71 198.646 2336 186.5 2336 167C2336 150.132 2352.5 135.5 2373 141C2393.5 146.5 2402 158.5 2397.5 176Z" fill="#61C3D3"/>
<path d="M2320 167C2325.7 174.144 2330 188.5 2322 200C2315.6 209.193 2294.53 217.531 2285.5 208.5C2276.47 199.469 2268.5 178 2280.5 164.5C2292.5 151 2314.3 159.856 2320 167Z" fill="#61C3D3"/>
<path d="M1728.5 136.5C1686.63 69.9187 1676.71 20.2155 1676 0H2513.76C2513.76 45.2441 2467 102 2423.5 89C2370.21 73.0742 2241.5 19 2135.5 136.5C2029.5 254 1783.54 224.032 1728.5 136.5Z" fill="#62C4D6"/>
</svg>
