<svg width="838" height="214" viewBox="0 0 838 214" fill="none" xmlns="http://www.w3.org/2000/svg">
<path d="M721.5 176C717 193.5 702.602 198.646 690.5 198.646C675.709 198.646 660 186.5 660 167C660 150.132 676.5 135.5 697 141C717.5 146.5 726 158.5 721.5 176Z" fill="#61C3D3"/>
<path d="M644 167C649.704 174.144 654 188.5 646 200C639.605 209.193 618.531 217.531 609.5 208.5C600.469 199.469 592.5 178 604.5 164.5C616.5 151 638.296 159.856 644 167Z" fill="#61C3D3"/>
<path d="M52.5 136.5C10.6298 69.9187 0.709662 20.2155 0 0H837.756C837.756 45.2441 791 102 747.5 89C694.21 73.0742 565.5 19 459.5 136.5C353.5 254 107.545 224.032 52.5 136.5Z" fill="#62C4D6"/>
</svg>
