<svg width="838" height="273" viewBox="0 0 838 273" fill="none" xmlns="http://www.w3.org/2000/svg">
<path d="M712.588 176.478C711.243 188.476 703.175 193.809 691.073 193.809C676.282 193.809 668.449 184.941 666.87 169.812C666.87 152.944 688.384 151.147 696.452 152.48C704.52 153.814 713.932 164.479 712.588 176.478Z" fill="#61C3D3"/>
<path d="M635.61 177.738C641.314 184.882 639.85 192.056 633.371 198.535C625.452 206.454 616.511 205.9 607.565 198.646C598.535 189.615 609.091 177.135 614.124 173.529C619.157 169.924 629.906 170.595 635.61 177.738Z" fill="#61C3D3"/>
<path d="M56.2672 192.047C14.397 125.465 0.709662 20.2155 0 0H837.756C837.756 45.2441 809.548 107.816 763.775 128.031C712.897 150.501 526.202 131.951 419.41 219.482C312.618 307.014 111.312 279.578 56.2672 192.047Z" fill="#62C4D6"/>
</svg>
