<svg width="838" height="268" viewBox="0 0 838 268" fill="none" xmlns="http://www.w3.org/2000/svg">
<path d="M716.5 173.529C715.155 185.528 702.602 198.646 690.5 198.646C675.709 198.646 664.58 184.941 663 169.812C663 152.944 689.932 146.167 698 147.5C706.068 148.833 717.845 161.531 716.5 173.529Z" fill="#61C3D3"/>
<path d="M641.5 173.529C647.204 180.673 647.979 192.167 641.5 198.646C633.581 206.565 615.945 209.754 607 202.5C597.969 193.469 605.467 173.417 610.5 169.812C615.533 166.206 635.796 166.386 641.5 173.529Z" fill="#61C3D3"/>
<path d="M96.5 169.812C54.6298 103.231 0.709662 20.2155 0 0H837.756C837.756 45.2441 781.773 89.7845 736 110C685.122 132.47 477.792 134.468 371 222C264.208 309.532 151.545 257.343 96.5 169.812Z" fill="#62C4D6"/>
</svg>
